<svg width="163" height="39" viewBox="0 0 163 39" fill="none" xmlns="http://www.w3.org/2000/svg">
<path d="M2.24 31V8.6H13.696C16.64 8.6 18.8373 9.144 20.288 10.232C21.7387 11.2987 22.464 12.7067 22.464 14.456C22.464 15.608 22.1547 16.6213 21.536 17.496C20.9387 18.3493 20.0853 19.032 18.976 19.544C17.888 20.0347 16.5867 20.28 15.072 20.28L15.712 18.744C17.2907 18.744 18.6667 18.9893 19.84 19.48C21.0133 19.9493 21.92 20.6427 22.56 21.56C23.2213 22.456 23.552 23.5547 23.552 24.856C23.552 26.7973 22.7627 28.312 21.184 29.4C19.6267 30.4667 17.344 31 14.336 31H2.24ZM8.512 26.424H13.824C14.912 26.424 15.7333 26.2427 16.288 25.88C16.864 25.496 17.152 24.92 17.152 24.152C17.152 23.384 16.864 22.8187 16.288 22.456C15.7333 22.072 14.912 21.88 13.824 21.88H8.064V17.496H12.864C13.9307 17.496 14.7307 17.3147 15.264 16.952C15.7973 16.5893 16.064 16.0453 16.064 15.32C16.064 14.5947 15.7973 14.0613 15.264 13.72C14.7307 13.3573 13.9307 13.176 12.864 13.176H8.512V26.424ZM26.5458 31V13.656H32.6258V31H26.5458ZM29.5858 11.736C28.4764 11.736 27.5804 11.4267 26.8978 10.808C26.2151 10.1893 25.8738 9.42133 25.8738 8.504C25.8738 7.58667 26.2151 6.81867 26.8978 6.2C27.5804 5.58133 28.4764 5.272 29.5858 5.272C30.6951 5.272 31.5911 5.57067 32.2738 6.168C32.9564 6.744 33.2978 7.49067 33.2978 8.408C33.2978 9.368 32.9564 10.168 32.2738 10.808C31.6124 11.4267 30.7164 11.736 29.5858 11.736ZM36.577 31V7.256H42.657V31H36.577ZM46.6083 31V13.656H52.6883V31H46.6083ZM49.6483 11.736C48.5389 11.736 47.6429 11.4267 46.9603 10.808C46.2776 10.1893 45.9363 9.42133 45.9363 8.504C45.9363 7.58667 46.2776 6.81867 46.9603 6.2C47.6429 5.58133 48.5389 5.272 49.6483 5.272C50.7576 5.272 51.6536 5.57067 52.3363 6.168C53.0189 6.744 53.3603 7.49067 53.3603 8.408C53.3603 9.368 53.0189 10.168 52.3363 10.808C51.6749 11.4267 50.7789 11.736 49.6483 11.736Z" fill="#1B2E34"/>
<path d="M58.36 31V8.6H68.408C70.9893 8.6 72.9733 9.12267 74.36 10.168C75.7467 11.192 76.44 12.6 76.44 14.392C76.44 15.608 76.1627 16.632 75.608 17.464C75.0747 18.296 74.3493 18.936 73.432 19.384C72.5147 19.832 71.5227 20.056 70.456 20.056L71.032 19.096C72.312 19.096 73.4427 19.32 74.424 19.768C75.4053 20.216 76.184 20.8773 76.76 21.752C77.336 22.6053 77.624 23.672 77.624 24.952C77.624 26.872 76.8987 28.3653 75.448 29.432C74.0187 30.4773 71.8853 31 69.048 31H58.36ZM61.56 28.408H68.92C70.6907 28.408 72.0453 28.1093 72.984 27.512C73.9227 26.9147 74.392 25.976 74.392 24.696C74.392 23.3947 73.9227 22.4453 72.984 21.848C72.0453 21.2507 70.6907 20.952 68.92 20.952H61.272V18.36H68.12C69.7413 18.36 71 18.0613 71.896 17.464C72.792 16.8667 73.24 15.9707 73.24 14.776C73.24 13.5813 72.792 12.6853 71.896 12.088C71 11.4907 69.7413 11.192 68.12 11.192H61.56V28.408ZM89.2668 31.192C87.8161 31.192 86.5361 30.9253 85.4268 30.392C84.3388 29.8587 83.4854 29.048 82.8668 27.96C82.2694 26.8507 81.9708 25.464 81.9708 23.8V14.04H85.0428V23.448C85.0428 25.112 85.4374 26.36 86.2268 27.192C87.0374 28.024 88.1681 28.44 89.6188 28.44C90.6854 28.44 91.6134 28.2267 92.4028 27.8C93.1921 27.352 93.8001 26.712 94.2268 25.88C94.6534 25.0267 94.8668 24.0027 94.8668 22.808V14.04H97.9388V31H95.0268V26.424L95.5068 27.64C94.9521 28.7707 94.1201 29.6453 93.0108 30.264C91.9014 30.8827 90.6534 31.192 89.2668 31.192ZM110.795 31.192C109.152 31.192 107.68 30.8293 106.379 30.104C105.099 29.3787 104.086 28.3653 103.339 27.064C102.592 25.7627 102.219 24.248 102.219 22.52C102.219 20.792 102.592 19.288 103.339 18.008C104.086 16.7067 105.099 15.6933 106.379 14.968C107.68 14.2427 109.152 13.88 110.795 13.88C112.224 13.88 113.515 14.2 114.667 14.84C115.819 15.48 116.736 16.44 117.419 17.72C118.123 19 118.475 20.6 118.475 22.52C118.475 24.44 118.134 26.04 117.451 27.32C116.79 28.6 115.883 29.5707 114.731 30.232C113.579 30.872 112.267 31.192 110.795 31.192ZM111.051 28.504C112.118 28.504 113.078 28.2587 113.931 27.768C114.806 27.2773 115.488 26.584 115.979 25.688C116.491 24.7707 116.747 23.7147 116.747 22.52C116.747 21.304 116.491 20.2587 115.979 19.384C115.488 18.488 114.806 17.7947 113.931 17.304C113.078 16.8133 112.118 16.568 111.051 16.568C109.963 16.568 108.992 16.8133 108.139 17.304C107.286 17.7947 106.603 18.488 106.091 19.384C105.579 20.2587 105.323 21.304 105.323 22.52C105.323 23.7147 105.579 24.7707 106.091 25.688C106.603 26.584 107.286 27.2773 108.139 27.768C108.992 28.2587 109.963 28.504 111.051 28.504ZM116.843 31V26.424L117.035 22.488L116.715 18.552V7.256H119.787V31H116.843ZM132.608 31.192C130.965 31.192 129.493 30.8293 128.192 30.104C126.912 29.3787 125.898 28.3653 125.152 27.064C124.405 25.7627 124.032 24.248 124.032 22.52C124.032 20.792 124.405 19.288 125.152 18.008C125.898 16.7067 126.912 15.6933 128.192 14.968C129.493 14.2427 130.965 13.88 132.608 13.88C134.037 13.88 135.328 14.2 136.48 14.84C137.632 15.48 138.549 16.44 139.232 17.72C139.936 19 140.288 20.6 140.288 22.52C140.288 24.44 139.946 26.04 139.264 27.32C138.602 28.6 137.696 29.5707 136.544 30.232C135.392 30.872 134.08 31.192 132.608 31.192ZM132.864 28.504C133.93 28.504 134.89 28.2587 135.744 27.768C136.618 27.2773 137.301 26.584 137.792 25.688C138.304 24.7707 138.56 23.7147 138.56 22.52C138.56 21.304 138.304 20.2587 137.792 19.384C137.301 18.488 136.618 17.7947 135.744 17.304C134.89 16.8133 133.93 16.568 132.864 16.568C131.776 16.568 130.805 16.8133 129.952 17.304C129.098 17.7947 128.416 18.488 127.904 19.384C127.392 20.2587 127.136 21.304 127.136 22.52C127.136 23.7147 127.392 24.7707 127.904 25.688C128.416 26.584 129.098 27.2773 129.952 27.768C130.805 28.2587 131.776 28.504 132.864 28.504ZM138.656 31V26.424L138.847 22.488L138.528 18.552V7.256H141.6V31H138.656ZM148.148 37.4C147.337 37.4 146.548 37.2613 145.78 36.984C145.012 36.728 144.351 36.344 143.796 35.832L145.108 33.528C145.535 33.9333 146.004 34.2427 146.516 34.456C147.028 34.6693 147.572 34.776 148.148 34.776C148.895 34.776 149.513 34.584 150.004 34.2C150.495 33.816 150.953 33.1333 151.38 32.152L152.436 29.816L152.756 29.432L159.412 14.04H162.42L154.196 32.696C153.705 33.8907 153.151 34.8293 152.532 35.512C151.935 36.1947 151.273 36.6747 150.548 36.952C149.823 37.2507 149.023 37.4 148.148 37.4ZM152.18 31.544L144.436 14.04H147.636L154.228 29.144L152.18 31.544Z" fill="#1B2E34"/>
</svg>
